<svg xmlns="http://www.w3.org/2000/svg" viewBox="0 0 800 1000"><defs><linearGradient id="g" x1="0" x2="1" y1="0" y2="1"><stop offset="0" stop-color="hsl(220 28% 88%)"/><stop offset="1" stop-color="hsl(18 24% 62%)"/></linearGradient><filter id="soft"><feGaussianBlur stdDeviation="18"/></filter></defs><rect width="800" height="1000" fill="url(#g)"/><g filter="url(#soft)"><rect x="320" y="358" width="276" height="338" rx="12" transform="rotate(-8 458.0 527.0)" fill="hsl(110  35%  39%)" opacity="0.45"/><rect x="417" y="495" width="317" height="391" rx="13" transform="rotate(15 575.5 690.5)" fill="hsl(129  39%  44%)" opacity="0.49"/><rect x="514" y="632" width="358" height="144" rx="14" transform="rotate(2 693.0 704.0)" fill="hsl(148  43%  49%)" opacity="0.53"/><rect x="611" y="769" width="399" height="197" rx="15" transform="rotate(-11 810.5 867.5)" fill="hsl(167  47%  54%)" opacity="0.57"/><rect x="708" y="906" width="180" height="250" rx="16" transform="rotate(12 798.0 1031.0)" fill="hsl(186  51%  59%)" opacity="0.61"/></g><g><rect x="45" y="103" width="221" height="303" rx="17" transform="rotate(-1 155.5 254.5)" fill="hsl(205  55%  64%)" opacity="0.45"/><rect x="142" y="240" width="262" height="356" rx="18" transform="rotate(-14 273.0 418.0)" fill="hsl(224  59%  69%)" opacity="0.49"/><rect x="239" y="377" width="303" height="109" rx="19" transform="rotate(9 390.5 431.5)" fill="hsl(243  63%  74%)" opacity="0.53"/><rect x="336" y="514" width="344" height="162" rx="20" transform="rotate(-4 508.0 595.0)" fill="hsl(262  67%  79%)" opacity="0.57"/><rect x="433" y="651" width="385" height="215" rx="21" transform="rotate(-17 625.5 758.5)" fill="hsl(281  36%  29%)" opacity="0.61"/></g><path d="M80 422 C 250 402, 510 528, 720 574" fill="none" stroke="rgba(255,255,255,.6)" stroke-width="22"/><text x="400" y="945" text-anchor="middle" font-family="Arial" font-size="18" fill="rgba(255,255,255,.72)">IMAGEN DE REFERENCIA 14</text></svg>